# xmcd
#
# Track frame offsets: 
#        150
#        18299
#        32095
#        53902
#        72174
#        90309
#        108263
#        122784
#        136952
#        158373
#        186362
#
# Disc length: 2819 seconds
#
# Revision: 3
# Processed by: cddbd v1.5.2PL0 Copyright (c) Steve Scherf et al.
# Submitted via: ExactAudioCopyFreeDBPlugin 1.0
#
DISCID=850b010b
DTITLE=Darkthrone - The Cult Is Alive {LimEd,Peaceville,CDVILEF132X}
DYEAR=2006
DGENRE=Black Metal
TTITLE0=The Cult of Goliath
TTITLE1=Too Old Too Cold
TTITLE2=Atomic Coming
TTITLE3=Graveyard Slut
TTITLE4=Underdogs and Overlords
TTITLE5=Whisky Funeral
TTITLE6=De Underjordiske (Ælia Capitolina)
TTITLE7=Tyster på Gud
TTITLE8=Shut Up
TTITLE9=Forebyggende Krig
TTITLE10=Bonus Enhanced Video Track - Too Old Too Cold
EXTD=
EXTT0=
EXTT1=
EXTT2=
EXTT3=
EXTT4=
EXTT5=
EXTT6=
EXTT7=
EXTT8=
EXTT9=
EXTT10=
PLAYORDER=
